# Blender v2.66 (sub 1) OBJ File: ''
# www.blender.org
o Cube_Cube.001
v -0.669945 -2.501433 -1.000761
v -0.669945 2.498567 -1.000761
v 0.551622 2.498567 -1.000761
v 0.551622 -2.501433 -1.000761
v -0.669945 -2.501433 0.999239
v -0.669945 2.498567 0.999239
v 0.551622 2.498567 0.999239
v 0.551622 -2.501433 0.999239
v -0.669945 2.498567 0.907556
v -0.669945 -2.501433 0.907556
v 0.551622 2.498567 0.907556
v 0.551622 -2.501433 0.907556
v -0.669945 -2.398883 0.907556
v 0.551622 -2.398883 0.907556
v -0.669945 -2.398883 -0.908406
v 0.551622 -2.398883 -0.908406
v -0.669945 2.399742 0.907556
v -0.669945 2.399742 -0.908406
v 0.551622 2.399742 -0.908406
v -0.669945 2.399742 -1.000761
v -0.669945 -2.398883 0.999239
v -0.669945 -2.398883 -1.000761
v 0.551622 -2.398883 0.999239
v 0.551622 -2.398883 -1.000761
v -0.669945 -2.501433 -0.908406
v 0.551622 -2.501433 -0.908406
v 0.551622 2.498567 -0.908406
v -0.669945 2.498567 -0.908406
v 0.435030 -2.398883 0.907556
v 0.435030 -2.398883 -0.908406
v 0.435030 2.399742 0.907556
v 0.435030 2.399742 -0.908406
v 0.551622 2.399742 0.999239
v 0.551622 2.399742 0.907556
v 0.551622 2.399742 -1.000761
v -0.669945 2.399742 0.999239
v 0.551622 -2.398883 0.804115
v -0.669945 -2.398883 0.804115
v -0.669945 -2.501433 0.804115
v 0.551622 2.498567 0.804115
v -0.669945 2.498567 0.804115
v 0.551622 -2.501433 0.804115
v 0.551622 2.399742 0.804115
v -0.669945 2.399742 0.804115
v 0.435030 2.399742 0.804115
v 0.435030 -2.398883 0.804115
v 0.330494 2.303519 0.907556
v -0.669945 2.303519 0.907556
v -0.669945 -2.301479 0.907556
v -0.669945 -2.301479 -1.000761
v -0.566227 2.498567 0.907556
v -0.566227 -2.501433 0.907556
v -0.566227 -2.501433 0.999239
v -0.566227 -2.501433 -1.000761
v -0.566227 -2.501433 0.804115
v -0.566227 2.498567 0.804115
v -0.566227 -2.501433 -0.801373
v -0.566227 2.498567 -0.801373
v -0.566227 2.303519 0.999239
v 0.435030 2.303519 -0.801373
v 0.551622 2.498567 -0.801373
v -0.669945 -2.501433 -0.801373
v 0.435030 -2.398883 -0.801373
v 0.435030 2.399742 -0.801373
v -0.566227 2.399742 -1.000761
v -0.566227 2.399742 0.999239
v 0.330494 2.399742 -0.801373
v 0.330494 -2.398883 -0.801373
v 0.551622 -2.501433 -0.801373
v -0.669945 2.498567 -0.801373
v -0.669945 -2.301479 -0.908406
v 0.551622 -2.301479 -0.908406
v 0.330494 2.399742 0.804115
v 0.330494 -2.398883 0.804115
v -0.669945 2.399742 -0.801373
v 0.551622 2.399742 -0.801373
v -0.669945 -2.398883 -0.801373
v 0.551622 -2.398883 -0.801373
v -0.566227 -2.398883 -1.000761
v -0.566227 -2.398883 0.999239
v -0.566227 -2.501433 -0.908406
v -0.566227 2.498567 -0.908406
v -0.566227 2.498567 -1.000761
v -0.566227 2.498567 0.999239
v 0.435030 -2.301479 -0.801373
v 0.551622 -2.301479 -0.801373
v -0.566227 -2.301479 0.999239
v -0.566227 -2.301479 -1.000761
v 0.551622 -2.301479 0.999239
v 0.551622 -2.301479 -1.000761
v -0.669945 -2.301479 0.999239
v 0.551622 -2.301479 0.907556
v 0.330494 -2.398883 -0.908406
v 0.330494 2.399742 0.907556
v 0.330494 2.399742 -0.908406
v 0.330494 -2.398883 0.907556
v 0.435030 -2.301479 0.907556
v 0.435030 -2.301479 -0.908406
v 0.551622 -2.301479 0.804115
v 0.435030 -2.301479 0.804115
v -0.566227 2.303519 -1.000761
v -0.669945 2.303519 0.999239
v 0.330494 -2.301479 0.907556
v 0.330494 -2.301479 -0.908406
v 0.551622 2.303519 -0.908406
v -0.669945 2.303519 -1.000761
v 0.330494 2.303519 -0.908406
v -0.669945 2.303519 -0.908406
v 0.435030 2.303519 0.907556
v 0.435030 2.303519 0.804115
v 0.435030 2.303519 -0.908406
v 0.551622 2.303519 -0.801373
v 0.551622 2.303519 0.999239
v 0.551622 2.303519 -1.000761
v 0.551622 2.303519 0.907556
v 0.551622 2.303519 0.804115
v 0.438486 2.498567 0.999239
v 0.438486 -2.501433 -1.000761
v 0.438486 -2.501433 0.907556
v 0.438486 -2.398883 -1.000761
v 0.438486 -2.501433 -0.908406
v 0.438486 2.399742 -1.000761
v 0.438486 -2.501433 0.804115
v 0.438486 -2.301479 0.999239
v 0.438486 -2.501433 -0.801373
v 0.438486 -2.398883 0.999239
v 0.438486 2.498567 0.907556
v 0.438486 2.498567 -0.908406
v 0.438486 2.399742 0.999239
v 0.438486 2.498567 -0.801373
v 0.438486 2.498567 0.804115
v 0.438486 2.498567 -1.000761
v 0.438486 -2.501433 0.999239
v 0.438486 2.303519 0.999239
v 0.438486 -2.301479 -1.000761
v 0.438486 2.303519 -1.000761
v -0.565979 2.303519 -0.908406
v -0.565979 -2.398883 0.907556
v -0.565979 -2.398883 -0.908406
v -0.565979 2.303519 0.907556
v -0.565979 -2.301479 -0.908406
v -0.565979 -2.301479 0.907556
v -0.565979 2.399742 0.907556
v -0.565979 2.399742 -0.908406
v -0.565979 2.399742 -0.801373
v -0.565979 -2.398883 -0.801373
v -0.565979 2.399742 0.804115
v -0.565979 -2.398883 0.804115
vt 0.891528 0.124544
vt 0.886338 0.126045
vt 0.885528 0.122392
vt 0.888512 0.119231
vt 0.822290 0.125526
vt 0.816669 0.125514
vt 0.817023 0.121812
vt 0.821823 0.120630
vt 0.520181 0.124334
vt 0.515165 0.125625
vt 0.514793 0.121974
vt 0.518434 0.118718
vt 0.451127 0.126279
vt 0.445961 0.126069
vt 0.446773 0.122470
vt 0.450872 0.121553
vt 0.820575 0.115169
vt 0.813496 0.118685
vt 0.881034 0.240991
vt 0.880011 0.235733
vt 0.884109 0.234908
vt 0.886972 0.238108
vt 0.884955 0.231365
vt 0.890088 0.233026
vt 0.821133 0.235475
vt 0.816466 0.234275
vt 0.816140 0.230675
vt 0.821617 0.230703
vt 0.518840 0.237211
vt 0.515275 0.234031
vt 0.515623 0.230473
vt 0.520523 0.231722
vt 0.451981 0.235402
vt 0.447929 0.234571
vt 0.447079 0.231066
vt 0.452138 0.230763
vt 0.510066 0.120799
vt 0.511362 0.115174
vt 0.451138 0.132040
vt 0.445315 0.131694
vt 0.526654 0.129855
vt 0.521162 0.130426
vt 0.525900 0.123484
vt 0.822434 0.131406
vt 0.816233 0.131028
vt 0.525399 0.238001
vt 0.526133 0.232527
vt 0.450909 0.240835
vt 0.444955 0.237903
vt 0.515617 0.131086
vt 0.892326 0.131218
vt 0.886764 0.131723
vt 0.525103 0.117915
vt 0.440563 0.124423
vt 0.443696 0.119157
vt 0.439621 0.131099
vt 0.441783 0.232813
vt 0.807245 0.110875
vt 0.813438 0.110972
vt 0.806916 0.117917
vt 0.813021 0.237318
vt 0.811390 0.231833
vt 0.806819 0.490747
vt 0.812708 0.490749
vt 0.812706 0.497299
vt 0.806818 0.497298
vt 0.806871 0.306580
vt 0.812769 0.306596
vt 0.812755 0.312940
vt 0.806866 0.312932
vt 0.811794 0.124309
vt 0.812750 0.318548
vt 0.806863 0.318543
vt 0.380957 0.227486
vt 0.381020 0.233699
vt 0.374752 0.233757
vt 0.374694 0.227556
vt 0.807253 0.037178
vt 0.813153 0.037171
vt 0.813160 0.042834
vt 0.807257 0.042844
vt 0.810857 0.130417
vt 0.525001 0.503624
vt 0.519040 0.503623
vt 0.519041 0.497225
vt 0.525002 0.497227
vt 0.952159 0.131658
vt 0.952254 0.125228
vt 0.958522 0.125324
vt 0.958424 0.131742
vt 0.806846 0.379768
vt 0.812735 0.379769
vt 0.812734 0.386166
vt 0.806845 0.386165
vt 0.446400 0.225727
vt 0.452021 0.225277
vt 0.521431 0.225928
vt 0.526782 0.226440
vt 0.815747 0.225466
vt 0.821772 0.225124
vt 0.516035 0.225305
vt 0.885628 0.225982
vt 0.891106 0.226642
vt 0.440733 0.226421
vt 0.812732 0.392497
vt 0.806844 0.392495
vt 0.379833 0.131414
vt 0.373569 0.131490
vt 0.810531 0.226035
vt 0.950837 0.233983
vt 0.950908 0.227769
vt 0.957173 0.227847
vt 0.957107 0.234051
vt 0.805852 0.232598
vt 0.805233 0.226508
vt 0.813174 0.049194
vt 0.807261 0.049211
vt 0.806138 0.123495
vt 0.881356 0.121442
vt 0.882521 0.116138
vt 0.510663 0.235223
vt 0.511988 0.240753
vt 0.509459 0.131488
vt 0.509598 0.125650
vt 0.379746 0.124983
vt 0.373478 0.125072
vt 0.879859 0.231060
vt 0.880964 0.132008
vt 0.881063 0.126204
vt 0.510185 0.230483
vt 0.510040 0.224932
vt 0.879979 0.225538
vt 0.806869 0.245069
vt 0.813019 0.244960
vt 0.896914 0.233406
vt 0.897237 0.227030
vt 0.819853 0.240828
vt 0.469504 0.968558
vt 0.039330 0.971111
vt 0.032780 0.279822
vt 0.465200 0.275731
vt 0.449687 0.116079
vt 0.524987 0.558487
vt 0.519026 0.558486
vt 0.898485 0.130999
vt 0.519070 0.306524
vt 0.525042 0.306510
vt 0.525044 0.312862
vt 0.519082 0.312869
vt 0.806860 0.324906
vt 0.812748 0.324908
vt 0.519068 0.392424
vt 0.525028 0.392425
vt 0.525004 0.490677
vt 0.519043 0.490675
vt 0.805406 0.129880
vt 0.525045 0.318474
vt 0.519085 0.318476
vt 0.519071 0.379697
vt 0.525031 0.379698
vt 0.525030 0.386095
vt 0.519069 0.386094
vt 0.433671 0.124210
vt 0.433485 0.130831
vt 0.806802 0.558557
vt 0.806816 0.503695
vt 0.518486 0.110980
vt 0.524762 0.110874
vt 0.518774 0.042832
vt 0.524750 0.042842
vt 0.524745 0.049210
vt 0.518759 0.049192
vt 0.434606 0.226816
vt 0.434932 0.233198
vt 0.518781 0.037169
vt 0.524753 0.037177
vt 0.519085 0.324836
vt 0.525045 0.324836
vt 0.806560 0.238074
vt 0.898346 0.124394
vt 0.525074 0.244998
vt 0.518840 0.244880
vt 0.812705 0.503696
vt 0.812691 0.558558
vt 0.806801 0.564919
vt 0.524985 0.564849
vt 0.812689 0.564921
vt 0.519024 0.564848
vn -0.904508 -0.301492 0.301492
vn -0.707083 0.707083 0.000000
vn -0.577349 0.577349 -0.577349
vn -0.707083 0.000000 -0.707083
vn 0.000000 1.000000 0.000000
vn 0.707083 0.707083 0.000000
vn 0.577349 0.577349 -0.577349
vn 0.000000 0.707083 -0.707083
vn 1.000000 0.000000 0.000000
vn 0.707083 -0.707083 0.000000
vn 0.577349 -0.577349 -0.577349
vn 0.707083 0.000000 -0.707083
vn 0.000000 -1.000000 0.000000
vn -0.707083 -0.707083 0.000000
vn -0.577349 -0.577349 -0.577349
vn 0.000000 -0.707083 -0.707083
vn 0.000000 0.000000 -1.000000
vn 0.000000 0.000000 1.000000
vn 0.000000 0.707083 0.707083
vn -0.577349 0.577349 0.577349
vn -0.707083 0.000000 0.707083
vn -0.904508 -0.301492 -0.301492
vn 0.577349 0.577349 0.577349
vn 0.707083 0.000000 0.707083
vn 0.577349 -0.577349 0.577349
vn 0.000000 -0.707083 0.707083
vn -0.577349 -0.577349 0.577349
vn -0.904508 0.301492 0.301492
vn -0.904508 0.301492 -0.301492
vn -1.000000 0.000000 0.000000
vn 0.000000 0.000000 0.999969
vn 0.000000 0.000000 -0.999969
s 1
f 18/1/1 28/2/2 2/3/3 20/4/4
f 128/5/5 27/6/6 3/7/7 132/8/8
f 16/9/9 26/10/10 4/11/11 24/12/12
f 81/13/13 25/14/14 1/15/15 54/16/16
f 122/17/17 132/8/8 3/7/7 35/18/12
f 66/19/18 84/20/19 6/21/20 36/22/21
f 36/22/21 6/21/20 9/23/2 17/24/22
f 117/25/19 7/26/23 11/27/6 127/28/5
f 23/29/24 8/30/25 12/31/10 14/32/9
f 53/33/26 5/34/27 10/35/14 52/36/13
f 118/37/16 120/38/17 24/12/12 4/11/11
f 57/39/13 62/40/14 25/14/14 81/13/13
f 86/41/9 78/42/9 16/9/9 72/43/9
f 130/44/5 61/45/6 27/6/6 128/5/5
f 89/46/24 23/29/24 14/32/9 92/47/9
f 53/33/26 80/48/18 21/49/21 5/34/27
f 78/42/9 69/50/10 26/10/10 16/9/9
f 75/51/14 70/52/2 28/2/2 18/1/1
f 72/43/9 16/9/9 24/12/12 90/53/12
f 25/14/14 15/54/28 22/55/4 1/15/15
f 62/40/14 77/56/2 15/54/28 25/14/14
f 5/34/27 21/49/21 13/57/29 10/35/14
f 136/58/17 122/59/17 35/18/12 114/60/12
f 7/26/23 33/61/24 34/62/9 11/27/6
f 60/63/30 64/64/14 32/65/27 111/66/21
f 59/67/18 66/68/18 36/69/21 102/70/21
f 27/6/6 19/71/9 35/18/12 3/7/7
f 102/70/21 36/69/21 17/72/22 48/73/4
f 74/74/5 96/75/8 29/76/3 46/77/2
f 108/78/21 18/79/1 20/80/4 106/81/4
f 61/45/6 76/82/9 19/71/9 27/6/6
f 104/83/18 93/84/19 30/85/20 98/86/21
f 67/87/13 95/88/26 32/89/27 64/90/14
f 47/91/17 94/92/16 31/93/15 109/94/4
f 52/36/13 10/35/14 39/95/14 55/96/13
f 92/47/9 14/32/9 37/97/9 99/98/9
f 127/28/5 11/27/6 40/99/6 131/100/5
f 14/32/9 12/31/10 42/101/10 37/97/9
f 17/24/22 9/23/2 41/102/2 44/103/14
f 10/35/14 13/57/29 38/104/2 39/95/14
f 109/94/4 31/93/15 45/105/14 110/106/30
f 68/107/5 74/74/5 46/77/2 63/108/2
f 11/27/6 34/62/9 43/109/9 40/99/6
f 94/110/16 73/111/13 45/112/14 31/113/15
f 115/114/9 92/47/9 99/98/9 116/115/9
f 110/106/30 45/105/14 64/64/14 60/63/30
f 73/111/13 67/87/13 64/90/14 45/112/14
f 106/81/4 20/80/4 65/116/17 101/117/17
f 19/71/9 105/118/9 114/60/12 35/18/12
f 20/4/4 2/3/3 83/119/8 65/120/17
f 133/121/26 126/122/18 80/48/18 53/33/26
f 125/123/13 57/39/13 81/13/13 121/124/13
f 99/98/9 37/97/9 78/42/9 86/41/9
f 121/124/13 81/13/13 54/16/16 118/37/16
f 44/103/14 41/102/2 70/52/2 75/51/14
f 131/100/5 40/99/6 61/45/6 130/44/5
f 93/125/19 68/107/5 63/108/2 30/126/20
f 37/97/9 42/101/10 69/50/10 78/42/9
f 6/21/20 84/20/19 51/127/5 9/23/2
f 55/96/13 39/95/14 62/40/14 57/39/13
f 40/99/6 43/109/9 76/82/9 61/45/6
f 70/52/2 58/128/5 82/129/5 28/2/2
f 39/95/14 38/104/2 77/56/2 62/40/14
f 119/130/13 52/36/13 55/96/13 123/131/13
f 41/102/2 56/132/5 58/128/5 70/52/2
f 133/121/26 53/33/26 52/36/13 119/130/13
f 134/133/18 129/134/18 66/68/18 59/67/18
f 9/23/2 51/127/5 56/132/5 41/102/2
f 143/135/16 147/136/13 73/111/13 94/110/16
f 129/137/18 117/25/19 84/20/19 66/19/18
f 28/2/2 82/129/5 83/119/8 2/3/3
f 123/138/13 55/139/13 57/140/13 125/141/13
f 1/15/15 22/55/4 79/142/17 54/16/16
f 141/143/31 139/144/19 93/84/19 104/83/18
f 147/136/13 145/145/13 67/87/13 73/111/13
f 80/146/18 87/147/18 91/148/21 21/149/21
f 140/150/17 143/151/16 94/92/16 47/91/17
f 105/118/9 72/43/9 90/53/12 114/60/12
f 46/152/2 100/153/30 85/154/30 63/155/2
f 116/115/9 99/98/9 86/41/9 112/156/9
f 21/149/21 91/148/21 49/157/4 13/158/29
f 96/159/8 103/160/17 97/161/4 29/162/3
f 139/163/19 146/164/5 68/107/5 93/125/19
f 137/165/18 141/143/31 104/83/18 107/166/18
f 120/167/17 135/168/17 90/53/12 24/12/12
f 22/169/4 50/170/4 88/171/17 79/172/17
f 29/162/3 97/161/4 100/153/30 46/152/2
f 146/164/5 148/173/5 74/74/5 68/107/5
f 112/156/9 86/41/9 72/43/9 105/118/9
f 43/109/9 116/115/9 112/156/9 76/82/9
f 85/154/30 60/63/30 111/66/21 98/86/21
f 107/166/18 104/83/18 98/86/21 111/66/21
f 148/173/5 138/174/8 96/75/8 74/74/5
f 15/175/28 71/176/21 50/170/4 22/169/4
f 138/177/8 142/178/32 103/160/17 96/159/8
f 113/179/24 89/46/24 92/47/9 115/114/9
f 145/145/13 144/180/26 95/88/26 67/87/13
f 124/181/18 134/133/18 59/67/18 87/147/18
f 126/182/18 124/181/18 87/147/18 80/146/18
f 63/155/2 85/154/30 98/86/21 30/85/20
f 50/170/4 106/81/4 101/117/17 88/171/17
f 34/62/9 115/114/9 116/115/9 43/109/9
f 95/183/26 107/166/18 111/66/21 32/65/27
f 91/148/21 102/70/21 48/73/4 49/157/4
f 97/161/4 109/94/4 110/106/30 100/153/30
f 100/153/30 110/106/30 60/63/30 85/154/30
f 144/184/26 137/165/18 107/166/18 95/183/26
f 71/176/21 108/78/21 106/81/4 50/170/4
f 33/61/24 113/179/24 115/114/9 34/62/9
f 87/147/18 59/67/18 102/70/21 91/148/21
f 135/168/17 136/58/17 114/60/12 90/53/12
f 142/178/32 140/150/17 47/91/17 103/160/17
f 76/82/9 112/156/9 105/118/9 19/71/9
f 103/160/17 47/91/17 109/94/4 97/161/4
f 82/129/5 128/5/5 132/8/8 83/119/8
f 65/120/17 83/119/8 132/8/8 122/17/17
f 84/20/19 117/25/19 127/28/5 51/127/5
f 54/16/16 79/142/17 120/38/17 118/37/16
f 58/128/5 130/44/5 128/5/5 82/129/5
f 101/117/17 65/116/17 122/59/17 136/58/17
f 51/127/5 127/28/5 131/100/5 56/132/5
f 8/30/25 23/29/24 126/122/18 133/121/26
f 69/50/10 125/123/13 121/124/13 26/10/10
f 26/10/10 121/124/13 118/37/16 4/11/11
f 56/132/5 131/100/5 130/44/5 58/128/5
f 12/31/10 119/130/13 123/131/13 42/101/10
f 8/30/25 133/121/26 119/130/13 12/31/10
f 113/179/24 33/61/24 129/134/18 134/133/18
f 33/61/24 7/26/23 117/25/19 129/137/18
f 42/101/10 123/131/13 125/123/13 69/50/10
f 79/172/17 88/171/17 135/168/17 120/167/17
f 89/46/24 113/179/24 134/133/18 124/181/18
f 23/29/24 89/46/24 124/181/18 126/182/18
f 88/171/17 101/117/17 136/58/17 135/168/17
f 49/157/4 48/73/4 140/150/17 142/178/32
f 13/158/29 49/157/4 142/178/32 138/177/8
f 44/103/14 75/51/14 145/145/13 147/136/13
f 108/185/21 71/186/21 141/143/31 137/165/18
f 15/54/28 77/56/2 146/164/5 139/163/19
f 77/56/2 38/104/2 148/173/5 146/164/5
f 18/187/1 108/185/21 137/165/18 144/184/26
f 17/24/22 44/103/14 147/136/13 143/135/16
f 48/73/4 17/72/22 143/151/16 140/150/17
f 71/186/21 15/188/28 139/144/19 141/143/31
f 75/51/14 18/1/1 144/180/26 145/145/13
f 38/104/2 13/57/29 138/174/8 148/173/5
